<?xml version="1.0" encoding="UTF-8" standalone="no"?>
<svg
   xmlns:dc="http://purl.org/dc/elements/1.1/"
   xmlns:cc="http://creativecommons.org/ns#"
   xmlns:rdf="http://www.w3.org/1999/02/22-rdf-syntax-ns#"
   xmlns:svg="http://www.w3.org/2000/svg"
   xmlns="http://www.w3.org/2000/svg"
   id="svg8"
   version="1.1"
   viewBox="0 0 445.78375 181.44061"
   height="181.44061mm"
   width="445.78375mm">
  <defs
     id="defs2" />
  <metadata
     id="metadata5">
    <rdf:RDF>
      <cc:Work
         rdf:about="">
        <dc:format>image/svg+xml</dc:format>
        <dc:type
           rdf:resource="http://purl.org/dc/dcmitype/StillImage" />
        <dc:title></dc:title>
      </cc:Work>
    </rdf:RDF>
  </metadata>
  <g
     transform="translate(146.19754,152.45043)"
     id="layer1">
    <path
       style="fill:#ff6600;fill-opacity:1;stroke-width:0.18683197"
       id="path11983"
       d="m -3.5102418,-110.95541 c -2.14987,5.77049 -11.4126202,35.181196 -13.2222802,40.935236 0.74994,0.20794 0.8968,1.08605 0.20178,2.8079 -0.96798,2.10485 -4.32198,11.90792 -9.18148,13.68058 1.11856,-0.0306 2.10484,-0.0654 2.76884,-0.0489 1.47337,-0.0327 2.68161,1.07391 2.64499,2.44302 0.0364,1.36312 -1.17162,2.46973 -2.64499,2.44096 -0.49304,0.18739 -2.71803,-2.03759 -3.15185,-2.84844 4.72517,11.14359 20.9382502,16.22916 21.5660102,29.60203 0.94518,19.6769601 -15.5692702,25.4130711 -29.1969702,17.4988701 -11.479709,-6.6854101 -14.782522,-40.9743101 -45.167193,-50.2553701 -22.611155,-6.91148 -30.645485,26.45242 -5.77461,28.52064 1.49148,-5.67072 6.65683,-9.83763 12.79202,-9.79896 7.333342,-0.0467 13.270856,5.88876 13.223962,13.22397 0.04689,7.31709 -5.89062,13.2527401 -13.223962,13.2241501 -6.96846,0.0265 -12.68403,-5.3549801 -13.1894,-12.1870401 -29.734685,-2.14559 -20.051935,-44.29749 6.78106,-36.84794 35.759643,10.01886 34.200902,47.68792 49.949903,52.1870201 22.2240302,6.34912096 21.9060402,-17.1749001 15.56535,-24.8221201 -4.34423,-5.17524 -14.64035,-12.13361 -17.19341,-19.73599 -0.4667,0.925 -1.74015,2.03759 -2.84862,1.93352 -1.49353,0.0347 -2.70178,-1.07167 -2.74681,-2.44077 0.0451,-1.36332 1.25328,-2.46973 2.74681,-2.44115 0.62962,0.17114 1.4244,0.27539 2.29878,0.33219 -4.57066,-2.24965 -7.72643,-11.47578 -8.602865,-13.55821 -0.220653,-0.48502 -0.374224,-1.02365 -0.461848,-1.27288 -0.08763,-0.24924 -0.636724,-1.63011 0.657272,-1.84927 -0.211495,-0.68492 -11.055967,-34.793326 -13.217804,-40.518976 -2.18425,-6.08624 0.741726,-8.74131 4.68033,-8.64752 5.534338,0.1773 8.260216,0.34639 11.394325,0 0.8824,-1.88887 3.28058,-2.92803 5.69688,-2.9484 v 10.37553 c -2.30458,-0.0144 -4.43184,-1.19012 -5.39309,-2.95045 0,0 -7.594353,-0.008 -10.477353,0 -2.840597,-0.008 -1.887002,0.94537 -0.91492,3.76335 0.894371,2.77521 12.197333,39.108226 12.464873,39.929166 1.26074,-0.29894 1.47205,1.06923 1.47205,1.06923 0,0 2.97324,9.89873 5.08612,9.56244 h 0.20384 c 2.0559,0.33629 4.59886,-7.92822 5.49304,-9.76609 0.64214,-1.37545 0.85401,-1.1023 1.3224,-0.91697 l -0.10182,0.61132 c 0,0 0.0267,0.0266 0.0717,0.0734 0.97975,-3.85115 11.7606902,-37.944056 12.6449702,-40.662276 0.98423,-2.87703 1.93783,-3.83062 -0.91678,-3.86742 -2.8690002,0.0366 -10.4773502,0 -10.4773502,0 -0.94948,1.80535 -3.0747,2.98109 -5.39123,2.95045 v -10.27391 c 2.42882,-0.0368 4.827,1.00235 5.69689,2.9484 3.14643,0.28921 5.8725,0.12013 11.3941302,0 3.94869,-0.15077 6.87654,2.5041 4.67827,8.5457 z" />
    <path
       style="fill:#666666;stroke-width:0.06528082"
       d="m -39.115997,-84.781314 c 4.535225,-3.19633 9.623495,-3.45394 15.377135,-0.17675 2.46077,1.354 5.02393,1.84764 7.06992,-0.0884 9.2122602,-8.71702 18.7659002,-13.71862 31.46129,-12.90266 8.76618,0.56342 16.36183,2.85706 22.88893,7.15833 2.87948,1.89754 5.85535,3.38522 8.81157,4.61541 1.85995,0.774 3.27146,2.34949 3.79277,4.29543 0.42619,1.59086 0.6149,3.30457 0.63544,5.10524 0.0169,1.47188 -0.92034,2.8037 -2.33589,3.20734 -0.0113,0.004 -0.0225,0.006 -0.0338,0.01 -2.13174,0.31317 -3.59059,4.01182 -4.77221,9.72116 -1.92173,9.28537 -6.11448,16.87691 -13.60961,21.3424 -8.87157,5.28554 -18.52109,6.21883 -27.7937498,2.25354 -13.4328802,-5.74432 -20.7237702,-17.93999 -22.8889402,-23.375 -2.66544,-6.69077 -3.16626,-11.373 -10.78166,-11.48866 -5.57751,-0.0847 -8.161123,0.74378 -9.456043,5.74434 -3.166013,12.22626 -8.674902,21.42571 -20.237726,26.73323 -13.920114,6.38955 -25.338924,4.38689 -36.763704,-3.88849 -6.357865,-4.60521 -10.501435,-12.64733 -12.549155,-24.12617 -0.54648,-3.0634 -2.13924,-5.04622 -4.40803,-6.3022 -0.92822,-0.51385 -1.48944,-1.51015 -1.48808,-2.57112 0.006,-4.89994 0.54508,-8.9313 3.5542,-8.93408 2.57848,-0.38519 5.2483,-1.41408 7.99787,-3.00474 14.191845,-9.529536 28.545175,-10.791846 43.966193,-5.92107 4.776033,1.50852 10.531547,5.71008 16.614385,11.75377 1.596052,1.57451 3.243906,1.89783 4.948951,0.83957 z m -37.282908,-10.6712 c -15.39275,0 -27.871045,11.6474 -27.871045,26.01518 0,14.36779 12.478285,26.01519 27.871045,26.01519 15.392762,0 27.871054,-11.6474 27.871054,-26.01519 0,-14.36778 -12.478296,-26.01518 -27.871054,-26.01518 z m 89.965053,1.0605 c -15.3927498,0 -27.87105,11.6474 -27.87105,26.01517 0,14.36779 12.4783002,26.01519 27.87105,26.01519 15.39274,0 27.87103,-11.6474 27.87103,-26.01519 0,-14.36777 -12.47828,-26.01517 -27.87103,-26.01517 z"
       id="path834" />
    <g
       transform="translate(-26.726953,-160.89625)"
       id="g947">
      <path
         id="path901"
         style="font-style:normal;font-weight:normal;font-size:60.14990616px;line-height:1.25;font-family:sans-serif;letter-spacing:0px;word-spacing:0px;fill:#666666;fill-opacity:1;stroke:none;stroke-width:1.5037477"
         d="m 87.914951,46.103486 h 5.932754 V 64.07797 H 115.40534 V 46.103486 h 5.93275 v 43.849517 h -5.93275 V 69.070882 H 93.847705 v 20.882121 h -5.932754 z" />
      <path
         id="path903"
         style="font-style:normal;font-weight:normal;font-size:60.14990616px;line-height:1.25;font-family:sans-serif;letter-spacing:0px;word-spacing:0px;fill:#666666;fill-opacity:1;stroke:none;stroke-width:1.5037477"
         d="m 161.04643,72.15474 v 2.643306 h -24.84708 q 0.35244,5.580314 3.34819,8.517321 3.02512,2.907637 8.39984,2.907637 3.11323,0 6.02086,-0.763622 2.93701,-0.763622 5.81528,-2.290866 v 5.110393 q -2.90764,1.233543 -5.96213,1.879684 -3.05448,0.646142 -6.19708,0.646142 -7.87118,0 -12.48228,-4.581731 -4.58173,-4.581731 -4.58173,-12.39417 0,-8.07677 4.34677,-12.805351 4.37614,-4.757952 11.7774,-4.757952 6.63763,0 10.48511,4.28803 3.87685,4.258661 3.87685,11.601179 z m -5.40409,-1.585984 q -0.0587,-4.434881 -2.49646,-7.078187 -2.40834,-2.643307 -6.40267,-2.643307 -4.523,0 -7.25441,2.555196 -2.70205,2.555197 -3.11323,7.195668 z" />
      <path
         id="path905"
         style="font-style:normal;font-weight:normal;font-size:60.14990616px;line-height:1.25;font-family:sans-serif;letter-spacing:0px;word-spacing:0px;fill:#666666;fill-opacity:1;stroke:none;stroke-width:1.5037477"
         d="m 184.86556,73.417653 q -6.54952,0 -9.07535,1.497873 -2.52583,1.497874 -2.52583,5.110393 0,2.878267 1.87969,4.581731 1.90905,1.674094 5.16913,1.674094 4.49362,0 7.19567,-3.171968 2.73142,-3.201337 2.73142,-8.48795 v -1.204173 z m 10.77882,-2.232126 v 18.767476 h -5.40409 v -4.992912 q -1.85032,2.995747 -4.61111,4.434881 -2.76078,1.409763 -6.75511,1.409763 -5.05165,0 -8.0474,-2.819527 -2.96638,-2.848897 -2.96638,-7.606848 0,-5.550944 3.70063,-8.370471 3.73,-2.819527 11.10189,-2.819527 h 7.57748 v -0.528661 q 0,-3.729999 -2.46709,-5.756534 -2.43772,-2.055905 -6.8726,-2.055905 -2.81952,0 -5.4922,0.675512 -2.67268,0.675511 -5.13976,2.026535 v -4.992912 q 2.96637,-1.145433 5.75653,-1.703465 2.79016,-0.587401 5.43346,-0.587401 7.13693,0 10.66134,3.700629 3.52441,3.700629 3.52441,11.219367 z" />
      <path
         id="path907"
         style="font-style:normal;font-weight:normal;font-size:60.14990616px;line-height:1.25;font-family:sans-serif;letter-spacing:0px;word-spacing:0px;fill:#666666;fill-opacity:1;stroke:none;stroke-width:1.5037477"
         d="m 206.80501,44.253172 h 5.40409 v 45.699831 h -5.40409 z" />
      <path
         id="path909"
         style="font-style:normal;font-weight:normal;font-size:60.14990616px;line-height:1.25;font-family:sans-serif;letter-spacing:0px;word-spacing:0px;fill:#666666;fill-opacity:1;stroke:none;stroke-width:1.5037477"
         d="m 228.83256,47.71884 v 9.339683 h 11.13126 v 4.19992 h -11.13126 v 17.857004 q 0,4.023699 1.0867,5.169132 1.11606,1.145433 4.49362,1.145433 h 5.55094 v 4.522991 h -5.55094 q -6.25583,0 -8.6348,-2.320236 -2.37898,-2.349605 -2.37898,-8.51732 V 61.258443 h -3.96496 v -4.19992 h 3.96496 V 47.71884 Z" />
      <path
         id="path911"
         style="font-style:normal;font-weight:normal;font-size:60.14990616px;line-height:1.25;font-family:sans-serif;letter-spacing:0px;word-spacing:0px;fill:#666666;fill-opacity:1;stroke:none;stroke-width:1.5037477"
         d="m 274.44427,70.098835 v 19.854168 h -5.40409 V 70.275055 q 0,-4.669841 -1.82095,-6.990077 -1.82094,-2.320236 -5.46283,-2.320236 -4.37614,0 -6.90197,2.790157 -2.52582,2.790157 -2.52582,7.606849 v 18.591255 h -5.43346 V 44.253172 h 5.43346 v 17.915743 q 1.93842,-2.966377 4.55236,-4.43488 2.64331,-1.468504 6.0796,-1.468504 5.66843,0 8.57607,3.524409 2.90763,3.495038 2.90763,10.308895 z" />
    </g>
    <g
       transform="translate(-35.814117,-174.79427)"
       id="g956">
      <path
         id="path913"
         style="font-style:normal;font-weight:normal;font-size:60.14990616px;line-height:1.25;font-family:sans-serif;letter-spacing:0px;word-spacing:0px;fill:#ff6600;fill-opacity:1;stroke:none;stroke-width:1.5037477"
         d="m 102.57062,127.13551 -8.047403,21.82197 h 16.124173 z m -3.348192,-5.84464 h 6.725742 l 16.71157,43.84952 h -6.16771 L 112.4977,153.89165 H 92.731642 l -3.994329,11.24874 h -6.255826 z" />
      <path
         id="path915"
         style="font-style:normal;font-weight:normal;font-size:60.14990616px;line-height:1.25;font-family:sans-serif;letter-spacing:0px;word-spacing:0px;fill:#ff6600;fill-opacity:1;stroke:none;stroke-width:1.5037477"
         d="m 149.38651,137.23882 v -17.79827 h 5.40409 v 45.69984 h -5.40409 v -4.93418 q -1.70347,2.93701 -4.3174,4.37614 -2.58457,1.40977 -6.22646,1.40977 -5.96212,0 -9.72149,-4.75795 -3.73,-4.75796 -3.73,-12.51165 0,-7.7537 3.73,-12.51165 3.75937,-4.75796 9.72149,-4.75796 3.64189,0 6.22646,1.43914 2.61393,1.40976 4.3174,4.34677 z m -18.41504,11.4837 q 0,5.96212 2.43772,9.36905 2.46709,3.37756 6.75512,3.37756 4.28803,0 6.75511,-3.37756 2.46709,-3.40693 2.46709,-9.36905 0,-5.96213 -2.46709,-9.33969 -2.46708,-3.40693 -6.75511,-3.40693 -4.28803,0 -6.75512,3.40693 -2.43772,3.37756 -2.43772,9.33969 z" />
      <path
         id="path917"
         style="font-style:normal;font-weight:normal;font-size:60.14990616px;line-height:1.25;font-family:sans-serif;letter-spacing:0px;word-spacing:0px;fill:#ff6600;fill-opacity:1;stroke:none;stroke-width:1.5037477"
         d="m 162.04501,132.24591 h 5.72716 l 10.27953,27.60786 10.27952,-27.60786 h 5.72717 l -12.33543,32.89448 h -7.34252 z" />
      <path
         id="path919"
         style="font-style:normal;font-weight:normal;font-size:60.14990616px;line-height:1.25;font-family:sans-serif;letter-spacing:0px;word-spacing:0px;fill:#ff6600;fill-opacity:1;stroke:none;stroke-width:1.5037477"
         d="m 201.51838,132.24591 h 5.4041 v 32.89448 h -5.4041 z m 0,-12.80536 h 5.4041 v 6.84323 h -5.4041 z" />
      <path
         id="path921"
         style="font-style:normal;font-weight:normal;font-size:60.14990616px;line-height:1.25;font-family:sans-serif;letter-spacing:0px;word-spacing:0px;fill:#ff6600;fill-opacity:1;stroke:none;stroke-width:1.5037477"
         d="m 239.17082,133.21512 v 5.11039 q -2.29087,-1.1748 -4.75795,-1.7622 -2.46709,-0.58741 -5.11039,-0.58741 -4.0237,0 -6.05024,1.23355 -1.99716,1.23354 -1.99716,3.70063 0,1.87968 1.43913,2.96637 1.43913,1.05733 5.7859,2.02654 l 1.85032,0.41118 q 5.75653,1.23354 8.16488,3.49504 2.43771,2.23212 2.43771,6.25582 0,4.58173 -3.64188,7.25441 -3.61252,2.67268 -9.95646,2.67268 -2.6433,0 -5.52157,-0.52866 -2.8489,-0.49929 -6.02087,-1.52725 v -5.58031 q 2.99575,1.55661 5.90339,2.3496 2.90763,0.76363 5.75653,0.76363 3.81811,0 5.87402,-1.29229 2.0559,-1.32165 2.0559,-3.70063 0,-2.20275 -1.49787,-3.37755 -1.46851,-1.17481 -6.49079,-2.2615 l -1.87968,-0.44055 q -5.02229,-1.05732 -7.25441,-3.23071 -2.23213,-2.20275 -2.23213,-6.02086 0,-4.64047 3.28945,-7.1663 3.28945,-2.52583 9.33968,-2.52583 2.99575,0 5.63906,0.44055 2.6433,0.44056 4.87543,1.32166 z" />
      <path
         id="path923"
         style="font-style:normal;font-weight:normal;font-size:60.14990616px;line-height:1.25;font-family:sans-serif;letter-spacing:0px;word-spacing:0px;fill:#ff6600;fill-opacity:1;stroke:none;stroke-width:1.5037477"
         d="m 262.31443,136.03464 q -4.34677,0 -6.87259,3.40693 -2.52583,3.37756 -2.52583,9.28095 0,5.90338 2.49646,9.31031 2.52582,3.37756 6.90196,3.37756 4.3174,0 6.84323,-3.40693 2.52583,-3.40693 2.52583,-9.28094 0,-5.84465 -2.52583,-9.25158 -2.52583,-3.4363 -6.84323,-3.4363 z m 0,-4.58173 q 7.04882,0 11.07252,4.58173 4.0237,4.58174 4.0237,12.68788 0,8.07677 -4.0237,12.68787 -4.0237,4.58173 -11.07252,4.58173 -7.07818,0 -11.10188,-4.58173 -3.99433,-4.6111 -3.99433,-12.68787 0,-8.10614 3.99433,-12.68788 4.0237,-4.58173 11.10188,-4.58173 z" />
      <path
         id="path925"
         style="font-style:normal;font-weight:normal;font-size:60.14990616px;line-height:1.25;font-family:sans-serif;letter-spacing:0px;word-spacing:0px;fill:#ff6600;fill-opacity:1;stroke:none;stroke-width:1.5037477"
         d="m 305.40033,137.29756 q -0.91047,-0.52866 -1.99716,-0.76362 -1.05733,-0.26433 -2.34961,-0.26433 -4.58173,0 -7.04882,2.99574 -2.43771,2.96638 -2.43771,8.54669 v 17.32835 h -5.43347 v -32.89448 h 5.43347 v 5.11039 q 1.70346,-2.99575 4.43488,-4.43488 2.73141,-1.46851 6.63763,-1.46851 0.55804,0 1.23355,0.0881 0.67551,0.0587 1.49787,0.20559 z" />
    </g>
    <path
       id="path891"
       d="m -100.89424,-45.238634 c 1.981835,-4.31411 3.631655,-7.3998 6.815365,-9.55489"
       style="fill:#ff6600;fill-opacity:1;stroke:#ff6600;stroke-width:3.2650001;stroke-linecap:butt;stroke-linejoin:miter;stroke-miterlimit:4;stroke-dasharray:none;stroke-opacity:1" />
    <flowRoot
       transform="scale(0.26458333)"
       style="font-style:normal;font-weight:normal;font-size:40px;line-height:1.25;font-family:sans-serif;letter-spacing:0px;word-spacing:0px;fill:#000000;fill-opacity:1;stroke:none"
       id="flowRoot893"
       xml:space="preserve"><flowRegion
         id="flowRegion895"><rect
           y="568.95612"
           x="307.08636"
           height="52.527931"
           width="818.22357"
           id="rect897" /></flowRegion><flowPara
         id="flowPara899"></flowPara></flowRoot>  </g>
</svg>
